# xmcd
#
# Track frame offsets:
#	150
#	16348
#	29368
#	45754
#	60220
#	77064
#	94112
#	112398
#	131511
#	151521
#	169494
#	183441
#	202127
#
# Disc length: 2842 seconds
#
# Revision: 0
# Processed by: cddbd v1.5.2PL0 Copyright (c) Steve Scherf et al.
# Submitted via: dBpowerAMP V4.0
#
DISCID=a10b180d
DTITLE=John Michael Montgomery - Greatest Hits
DYEAR=1900
DGENRE=Country
TTITLE0=Angel In My Eyes
TTITLE1=Be My Baby Tonight
TTITLE2=Beer And Bones
TTITLE3=Cowboy Love
TTITLE4=Friends
TTITLE5=I Can Love You Like That
TTITLE6=I Love The Way You Love Me
TTITLE7=I Miss You A Little
TTITLE8=I Swear
TTITLE9=If You've Got Love
TTITLE10=No Man's Land
TTITLE11=Rope The Moon
TTITLE12=Sold!
EXTD=
EXTT0=
EXTT1=
EXTT2=
EXTT3=
EXTT4=
EXTT5=
EXTT6=
EXTT7=
EXTT8=
EXTT9=
EXTT10=
EXTT11=
EXTT12=
PLAYORDER=
